<svg width="95" height="28" viewBox="0 0 95 28" fill="none" xmlns="http://www.w3.org/2000/svg">
<path d="M38.9688 18V10H39.9375V13.5625H44.2031V10H45.1719V18H44.2031V14.4219H39.9375V18H38.9688ZM48.752 18.1406C48.3717 18.1406 48.0267 18.069 47.7168 17.9258C47.4069 17.7799 47.1608 17.5703 46.9785 17.2969C46.7962 17.0208 46.7051 16.6875 46.7051 16.2969C46.7051 15.9531 46.7728 15.6745 46.9082 15.4609C47.0436 15.2448 47.2246 15.0755 47.4512 14.9531C47.6777 14.8307 47.9277 14.7396 48.2012 14.6797C48.4772 14.6172 48.7546 14.5677 49.0332 14.5313C49.3978 14.4844 49.6934 14.4492 49.9199 14.4258C50.1491 14.3997 50.3158 14.3568 50.4199 14.2969C50.5267 14.237 50.5801 14.1328 50.5801 13.9844V13.9531C50.5801 13.5677 50.4746 13.2682 50.2637 13.0547C50.0553 12.8411 49.7389 12.7344 49.3145 12.7344C48.8743 12.7344 48.5293 12.8307 48.2793 13.0234C48.0293 13.2161 47.8535 13.4219 47.752 13.6406L46.877 13.3281C47.0332 12.9635 47.2415 12.6797 47.502 12.4766C47.765 12.2708 48.0514 12.1276 48.3613 12.0469C48.6738 11.9635 48.9811 11.9219 49.2832 11.9219C49.4759 11.9219 49.6973 11.9453 49.9473 11.9922C50.1999 12.0365 50.4434 12.1289 50.6777 12.2695C50.9147 12.4102 51.1113 12.6224 51.2676 12.9062C51.4238 13.1901 51.502 13.5703 51.502 14.0469V18H50.5801V17.1875H50.5332C50.4707 17.3177 50.3665 17.457 50.2207 17.6055C50.0749 17.7539 49.8809 17.8802 49.6387 17.9844C49.3965 18.0885 49.1009 18.1406 48.752 18.1406ZM48.8926 17.3125C49.2572 17.3125 49.5645 17.2409 49.8145 17.0977C50.0671 16.9544 50.2572 16.7695 50.3848 16.543C50.515 16.3164 50.5801 16.0781 50.5801 15.8281V14.9844C50.541 15.0312 50.4551 15.0742 50.3223 15.1133C50.1921 15.1497 50.041 15.1823 49.8691 15.2109C49.6999 15.237 49.5345 15.2604 49.373 15.2812C49.2142 15.2995 49.0853 15.3151 48.9863 15.3281C48.7467 15.3594 48.5228 15.4102 48.3145 15.4805C48.1087 15.5482 47.9421 15.651 47.8145 15.7891C47.6895 15.9245 47.627 16.1094 47.627 16.3437C47.627 16.6641 47.7454 16.9062 47.9824 17.0703C48.222 17.2318 48.5254 17.3125 48.8926 17.3125ZM52.8096 16.4687H53.7939C53.8148 16.7396 53.9372 16.9453 54.1611 17.0859C54.3877 17.2266 54.682 17.2969 55.0439 17.2969C55.4137 17.2969 55.7301 17.2214 55.9932 17.0703C56.2562 16.9167 56.3877 16.6693 56.3877 16.3281C56.3877 16.1276 56.3382 15.9531 56.2393 15.8047C56.1403 15.6536 56.001 15.5365 55.8213 15.4531C55.6416 15.3698 55.4294 15.3281 55.1846 15.3281H54.1533V14.5H55.1846C55.5518 14.5 55.8226 14.4167 55.9971 14.25C56.1742 14.0833 56.2627 13.875 56.2627 13.625C56.2627 13.3568 56.1676 13.1419 55.9775 12.9805C55.7874 12.8164 55.5179 12.7344 55.1689 12.7344C54.8174 12.7344 54.5244 12.8138 54.29 12.9727C54.0557 13.1289 53.932 13.3307 53.9189 13.5781H52.9502C52.9606 13.2552 53.0596 12.9701 53.2471 12.7227C53.4346 12.4727 53.6898 12.2773 54.0127 12.1367C54.3356 11.9935 54.7054 11.9219 55.1221 11.9219C55.5439 11.9219 55.9098 11.9961 56.2197 12.1445C56.5322 12.2904 56.7731 12.4896 56.9424 12.7422C57.1143 12.9922 57.2002 13.276 57.2002 13.5937C57.2002 13.9323 57.1051 14.2057 56.915 14.4141C56.7249 14.6224 56.4867 14.7708 56.2002 14.8594V14.9219C56.4268 14.9375 56.6234 15.0104 56.79 15.1406C56.9593 15.2682 57.0908 15.4362 57.1846 15.6445C57.2783 15.8503 57.3252 16.0781 57.3252 16.3281C57.3252 16.6927 57.2275 17.0104 57.0322 17.2812C56.8369 17.5495 56.5687 17.7578 56.2275 17.9062C55.8864 18.0521 55.4971 18.125 55.0596 18.125C54.6351 18.125 54.2549 18.056 53.9189 17.918C53.583 17.7773 53.3161 17.5833 53.1182 17.3359C52.9229 17.0859 52.82 16.7969 52.8096 16.4687ZM60.3857 18.1406C60.0055 18.1406 59.6605 18.069 59.3506 17.9258C59.0407 17.7799 58.7946 17.5703 58.6123 17.2969C58.43 17.0208 58.3389 16.6875 58.3389 16.2969C58.3389 15.9531 58.4066 15.6745 58.542 15.4609C58.6774 15.2448 58.8584 15.0755 59.085 14.9531C59.3115 14.8307 59.5615 14.7396 59.835 14.6797C60.111 14.6172 60.3883 14.5677 60.667 14.5313C61.0316 14.4844 61.3271 14.4492 61.5537 14.4258C61.7829 14.3997 61.9495 14.3568 62.0537 14.2969C62.1605 14.237 62.2139 14.1328 62.2139 13.9844V13.9531C62.2139 13.5677 62.1084 13.2682 61.8975 13.0547C61.6891 12.8411 61.3727 12.7344 60.9482 12.7344C60.5081 12.7344 60.1631 12.8307 59.9131 13.0234C59.6631 13.2161 59.4873 13.4219 59.3857 13.6406L58.5107 13.3281C58.667 12.9635 58.8753 12.6797 59.1357 12.4766C59.3988 12.2708 59.6852 12.1276 59.9951 12.0469C60.3076 11.9635 60.6149 11.9219 60.917 11.9219C61.1097 11.9219 61.3311 11.9453 61.5811 11.9922C61.8337 12.0365 62.0771 12.1289 62.3115 12.2695C62.5485 12.4102 62.7451 12.6224 62.9014 12.9062C63.0576 13.1901 63.1357 13.5703 63.1357 14.0469V18H62.2139V17.1875H62.167C62.1045 17.3177 62.0003 17.457 61.8545 17.6055C61.7087 17.7539 61.5146 17.8802 61.2725 17.9844C61.0303 18.0885 60.7347 18.1406 60.3857 18.1406ZM60.5264 17.3125C60.891 17.3125 61.1982 17.2409 61.4482 17.0977C61.7008 16.9544 61.891 16.7695 62.0186 16.543C62.1488 16.3164 62.2139 16.0781 62.2139 15.8281V14.9844C62.1748 15.0312 62.0889 15.0742 61.9561 15.1133C61.8258 15.1497 61.6748 15.1823 61.5029 15.2109C61.3337 15.237 61.1683 15.2604 61.0068 15.2812C60.848 15.2995 60.7191 15.3151 60.6201 15.3281C60.3805 15.3594 60.1566 15.4102 59.9482 15.4805C59.7425 15.5482 59.5758 15.651 59.4482 15.7891C59.3232 15.9245 59.2607 16.1094 59.2607 16.3437C59.2607 16.6641 59.3792 16.9062 59.6162 17.0703C59.8558 17.2318 60.1592 17.3125 60.5264 17.3125ZM64.1777 19.7188V17.1406H64.6777C64.8001 17.013 64.9056 16.875 64.9941 16.7266C65.0827 16.5781 65.1595 16.4023 65.2246 16.1992C65.2923 15.9935 65.3496 15.7435 65.3965 15.4492C65.4434 15.1523 65.485 14.7943 65.5215 14.375L65.7246 12H69.5371V17.1406H70.459V19.7188H69.5371V18H65.0996V19.7188H64.1777ZM65.7246 17.1406H68.6152V12.8594H66.584L66.4277 14.375C66.3626 15.0026 66.2819 15.5508 66.1855 16.0195C66.0892 16.4883 65.9355 16.862 65.7246 17.1406Z" fill="white"/>
<path d="M22.6464 13.6464C22.4512 13.8417 22.4512 14.1583 22.6464 14.3536L25.8284 17.5355C26.0237 17.7308 26.3403 17.7308 26.5355 17.5355C26.7308 17.3403 26.7308 17.0237 26.5355 16.8284L23.7071 14L26.5355 11.1716C26.7308 10.9763 26.7308 10.6597 26.5355 10.4645C26.3403 10.2692 26.0237 10.2692 25.8284 10.4645L22.6464 13.6464ZM23 14V14.5H30V14V13.5H23V14Z" fill="white"/>
<rect x="0.5" y="0.5" width="94" height="27" rx="9.5" stroke="white"/>
</svg>
