<svg width="106" height="42" viewBox="0 0 106 42" fill="none" xmlns="http://www.w3.org/2000/svg">
<rect x="26" y="18.3948" width="72" height="4" fill="#F4F1DE"/>
<rect x="102.281" y="39.9825" width="28.8246" height="3.7193" transform="rotate(-90 102.281 39.9825)" fill="#F4F1DE"/>
<rect x="38.1228" y="11.1579" width="67.8772" height="3.7193" fill="#F4F1DE"/>
<rect x="94.2639" y="39.9825" width="13.9474" height="3.73605" transform="rotate(-90 94.2639 39.9825)" fill="#F4F1DE"/>
<rect x="74.6497" y="39.9825" width="13.9474" height="3.73605" transform="rotate(-90 74.6497 39.9825)" fill="#F4F1DE"/>
<rect x="23.2791" y="39.9825" width="7.4386" height="3.73605" transform="rotate(-90 23.2791 39.9825)" fill="#F4F1DE"/>
<rect x="68.1116" y="39.9825" width="13.9474" height="3.73605" transform="rotate(-90 68.1116 39.9825)" fill="#F4F1DE"/>
<rect x="59.7055" y="22.3158" width="9.29825" height="3.73605" transform="rotate(-90 59.7055 22.3158)" fill="#F4F1DE"/>
<rect x="15.807" y="39.9825" width="7.4386" height="3.73605" transform="rotate(-90 15.807 39.9825)" fill="#F4F1DE"/>
<rect x="74.6497" y="26.0351" width="23.3503" height="3.7193" fill="#F4F1DE"/>
<rect x="38.2233" y="26.0351" width="33.6244" height="3.7193" fill="#F4F1DE"/>
<rect x="68.1116" y="36.2632" width="10.2741" height="3.7193" fill="#F4F1DE"/>
<path fill-rule="evenodd" clip-rule="evenodd" d="M24.1947 20.921C24.1947 22.729 22.729 24.1947 20.921 24.1947C19.6119 24.1947 18.4822 23.4262 17.9585 22.3158H14.0869C14.733 25.4989 17.5472 27.8947 20.921 27.8947C24.7725 27.8947 27.8947 24.7725 27.8947 20.921C27.8947 17.0696 24.7725 13.9474 20.921 13.9474C17.8846 13.9474 15.3015 15.8879 14.3442 18.5965H18.6159C19.2076 18.0098 20.022 17.6474 20.921 17.6474C22.729 17.6474 24.1947 19.113 24.1947 20.921Z" fill="#F4F1DE"/>
<path fill-rule="evenodd" clip-rule="evenodd" d="M38.0864 22.3158C38.1233 21.8557 38.1421 21.3906 38.1421 20.9211C38.1421 20.1327 38.0891 19.3567 37.9866 18.5965H41.7144C41.7988 19.3597 41.8421 20.1353 41.8421 20.9211C41.8421 21.3897 41.8267 21.8548 41.7964 22.3158L38.0864 22.3158ZM37.3701 26.0351C35.1918 33.0488 28.6512 38.1421 20.9211 38.1421C11.4101 38.1421 3.7 30.432 3.7 20.9211C3.7 11.4101 11.4101 3.7 20.9211 3.7C28.3053 3.7 34.604 8.34759 37.0517 14.8772H40.9558C38.3627 6.26948 30.3741 0 20.9211 0C9.36668 0 0 9.36668 0 20.9211C0 32.4754 9.36668 41.8421 20.9211 41.8421C30.7112 41.8421 38.9308 35.1174 41.2126 26.0351H37.3701Z" fill="#F4F1DE"/>
<path fill-rule="evenodd" clip-rule="evenodd" d="M31.6333 20.921C31.6333 21.3937 31.6027 21.8593 31.5434 22.3158H35.2667C35.3108 21.8568 35.3333 21.3916 35.3333 20.921C35.3333 12.9614 28.8807 6.50876 20.921 6.50876C17.9338 6.50876 15.1587 7.41762 12.8574 8.97391L15.317 11.7898C16.9473 10.7871 18.8667 10.2088 20.921 10.2088C26.8373 10.2088 31.6333 15.0048 31.6333 20.921ZM23.2456 31.3804C26.3077 30.7029 28.8773 28.715 30.3361 26.0351H34.3996C32.6014 30.7719 28.378 34.3146 23.2456 35.1468V31.3804ZM19.5263 31.5434C14.2691 30.8598 10.2088 26.3646 10.2088 20.921C10.2088 18.402 11.0783 16.086 12.5336 14.2568L10.0696 11.436C7.85236 13.9706 6.50877 17.2889 6.50877 20.921C6.50877 28.4102 12.221 34.5652 19.5263 35.2667V31.5434Z" fill="#F4F1DE"/>
</svg>
