<svg width="350" height="170" viewBox="0 0 350 170" fill="none" xmlns="http://www.w3.org/2000/svg">
<path d="M38.9595 27.6027H28.2094C28.1332 26.7132 27.9299 25.9063 27.5995 25.182C27.2818 24.4577 26.8371 23.8351 26.2653 23.3141C25.7061 22.7804 25.0263 22.3738 24.2258 22.0942C23.4252 21.8019 22.5167 21.6558 21.5001 21.6558C19.7212 21.6558 18.2154 22.0879 16.9828 22.9519C15.763 23.816 14.8354 25.0549 14.2 26.6687C13.5774 28.2825 13.266 30.2203 13.266 32.4821C13.266 34.871 13.5837 36.8724 14.2191 38.4862C14.8671 40.0872 15.8011 41.2944 17.021 42.1076C18.2408 42.9082 19.7085 43.3085 21.4239 43.3085C22.4023 43.3085 23.2791 43.1877 24.0542 42.9463C24.8294 42.6922 25.5028 42.33 26.0746 41.8599C26.6465 41.3897 27.1103 40.8242 27.4661 40.1635C27.8346 39.49 28.0823 38.734 28.2094 37.8953L38.9595 37.9715C38.8324 39.6234 38.3686 41.3071 37.5681 43.0225C36.7675 44.7253 35.6303 46.3009 34.1563 47.7495C32.695 49.1854 30.8842 50.3417 28.724 51.2185C26.5639 52.0953 24.0542 52.5337 21.1952 52.5337C17.6118 52.5337 14.397 51.7649 11.5506 50.2274C8.71696 48.6898 6.47419 46.428 4.82228 43.4419C3.18309 40.4557 2.36349 36.8025 2.36349 32.4821C2.36349 28.1364 3.20215 24.4768 4.87947 21.5033C6.55678 18.5172 8.81862 16.2617 11.665 14.7369C14.5113 13.1993 17.6881 12.4306 21.1952 12.4306C23.6603 12.4306 25.9285 12.7673 27.9997 13.4408C30.071 14.1142 31.8881 15.099 33.451 16.3951C35.014 17.6785 36.272 19.2606 37.225 21.1412C38.178 23.0218 38.7562 25.1756 38.9595 27.6027ZM43.7675 52V12.9643H71.9006V21.5033H54.3651V28.2126H70.4521V36.7517H54.3651V43.4609H71.8244V52H43.7675ZM101.211 52L89.2409 36.218H87.7541V52H77.1566V12.9643H87.7541V27.6789H89.1265L100.334 12.9643H113.676L98.8092 31.7197L114.515 52H101.211ZM117.36 52V12.9643H134.209C137.106 12.9643 139.641 13.5361 141.814 14.6797C143.987 15.8233 145.677 17.4308 146.884 19.502C148.091 21.5732 148.695 23.9939 148.695 26.764C148.695 29.5595 148.072 31.9802 146.827 34.026C145.595 36.0718 143.86 37.6475 141.624 38.753C139.4 39.8585 136.801 40.4113 133.828 40.4113H123.764V32.1772H131.693C132.938 32.1772 133.999 31.9612 134.876 31.5291C135.766 31.0844 136.446 30.4554 136.916 29.6421C137.399 28.8289 137.64 27.8695 137.64 26.764C137.64 25.6458 137.399 24.6928 136.916 23.9049C136.446 23.1044 135.766 22.4945 134.876 22.0751C133.999 21.6431 132.938 21.4271 131.693 21.4271H127.957V52H117.36ZM152.583 52V12.9643H180.717V21.5033H163.181V28.2126H179.268V36.7517H163.181V43.4609H180.64V52H152.583ZM184.905 21.5033V12.9643H218.833V21.5033H207.091V52H196.646V21.5033H184.905ZM222.821 52V12.9643H233.419V28.2126H247.447V12.9643H258.045V52H247.447V36.7517H233.419V52H222.821ZM269.786 26.0778H277.867C281.159 26.0778 284.03 26.6052 286.483 27.6599C288.948 28.7145 290.86 30.2012 292.22 32.12C293.592 34.0387 294.272 36.2942 294.259 38.8864C294.272 41.4787 293.592 43.7595 292.22 45.7291C290.86 47.6987 288.948 49.2362 286.483 50.3417C284.03 51.4472 281.159 52 277.867 52H263.305V12.9643H273.903V43.6897H277.867C279.151 43.6897 280.225 43.48 281.089 43.0607C281.965 42.6413 282.626 42.0632 283.071 41.3262C283.528 40.5892 283.751 39.7505 283.738 38.8102C283.751 37.476 283.255 36.3705 282.251 35.4937C281.248 34.6042 279.786 34.1595 277.867 34.1595H269.786V26.0778ZM307.602 12.9643V52H297.004V12.9643H307.602ZM312.61 12.9643H323.207V33.397H323.512L337.388 12.9643H346.385V52H335.787V31.491H335.559L321.454 52H312.61V12.9643ZM333.348 2.44292H339.981C339.968 4.92078 339.021 6.90306 337.141 8.38977C335.26 9.86378 332.725 10.6008 329.535 10.6008C326.321 10.6008 323.773 9.86378 321.892 8.38977C320.012 6.90306 319.078 4.92078 319.09 2.44292H325.647C325.634 3.24346 325.92 3.98046 326.505 4.65393C327.102 5.31469 328.112 5.64507 329.535 5.64507C330.895 5.64507 331.867 5.32105 332.452 4.67299C333.036 4.02494 333.335 3.28158 333.348 2.44292Z" fill="#FF5A5A"/>
<path d="M18.7446 146.289H2.36514L27.3226 73.9935H47.0204L71.9426 146.289H55.5631L37.4539 90.5142H36.8891L18.7446 146.289ZM17.7209 117.872H56.4103V129.804H17.7209V117.872ZM80.6442 146.289V73.9935H109.167C114.65 73.9935 119.322 75.0408 123.181 77.1353C127.041 79.2062 129.983 82.0891 132.006 85.7839C134.054 89.4552 135.078 93.6912 135.078 98.4921C135.078 103.293 134.042 107.529 131.971 111.2C129.9 114.872 126.9 117.731 122.97 119.778C119.063 121.826 114.333 122.85 108.779 122.85H90.5989V110.6H106.308C109.249 110.6 111.673 110.094 113.58 109.082C115.509 108.047 116.945 106.623 117.886 104.811C118.851 102.975 119.334 100.869 119.334 98.4921C119.334 96.0917 118.851 93.9972 117.886 92.2086C116.945 90.3965 115.509 88.9963 113.58 88.0078C111.65 86.9959 109.202 86.4899 106.237 86.4899H95.9293V146.289H80.6442ZM159.338 73.9935L173.917 98.6333H174.482L189.132 73.9935H206.394L184.331 110.141L206.888 146.289H189.308L174.482 121.614H173.917L159.091 146.289H141.582L164.209 110.141L142.005 73.9935H159.338ZM216.066 73.9935H231.316V119.461H231.916L263.157 73.9935H276.536V146.289H261.251V100.787H260.721L229.304 146.289H216.066V73.9935ZM289.165 146.289V73.9935H318.111C323.43 73.9935 327.866 74.7819 331.419 76.3587C334.973 77.9354 337.644 80.124 339.433 82.9246C341.221 85.7015 342.116 88.9021 342.116 92.5263C342.116 95.3504 341.551 97.8332 340.421 99.9747C339.291 102.093 337.738 103.834 335.761 105.199C333.808 106.541 331.572 107.494 329.054 108.059V108.765C331.808 108.882 334.385 109.659 336.785 111.094C339.209 112.53 341.174 114.542 342.68 117.131C344.186 119.696 344.94 122.755 344.94 126.309C344.94 130.145 343.986 133.569 342.08 136.581C340.198 139.57 337.409 141.935 333.714 143.677C330.019 145.418 325.465 146.289 320.053 146.289H289.165ZM304.45 133.793H316.911C321.171 133.793 324.277 132.981 326.23 131.357C328.184 129.71 329.16 127.521 329.16 124.791C329.16 122.791 328.678 121.026 327.713 119.496C326.748 117.966 325.371 116.766 323.583 115.895C321.818 115.025 319.711 114.589 317.264 114.589H304.45V133.793ZM304.45 104.246H315.781C317.876 104.246 319.735 103.881 321.359 103.152C323.006 102.399 324.301 101.34 325.242 99.9747C326.207 98.6098 326.689 96.9742 326.689 95.068C326.689 92.4557 325.76 90.3494 323.9 88.7492C322.065 87.1489 319.453 86.3487 316.064 86.3487H304.45V104.246Z" fill="#283553"/>
</svg>
